<svg width="356" height="97" viewBox="0 0 356 97" fill="none" xmlns="http://www.w3.org/2000/svg">
<g clip-path="url(#clip0_1469_615)">
<path d="M30.1337 30.9961L0 37.2817V69.4709L13.8715 80.5802V48.8386L27.1366 46.2527V91.1275L37.0399 97.0005L37.0498 96.9955V38.4305L30.1337 30.9961Z" fill="#808184"/>
<path d="M21.1967 14.0035L0.0493164 9.47324V27.455L37.0498 20.0604V0L21.1967 14.0035Z" fill="#5E5F61"/>
<path d="M0.0493164 29.7266V34.421L31.3119 28.1353L37.0498 34.1972V22.332L0.0493164 29.7266Z" fill="#83004C"/>
<path d="M46.8496 46.2527L59.6711 48.8386V80.5802L73.6658 69.4709V37.2817L43.9708 30.9961L37.0498 38.4305V96.9955L46.8496 91.1275V46.2527Z" fill="#C8CACB"/>
<path d="M73.6608 27.455V9.47324L53.0754 14.0035L37.0498 0V20.0604L73.6608 27.455Z" fill="#8A8C8F"/>
<path d="M42.7877 28.1353L73.6608 34.421V29.7266L37.0498 22.332V34.1972V34.2022L42.7877 28.1353Z" fill="#EB008B"/>
<path d="M99.7376 32.8801V55.0838H92.2991V20.0801H97.5539L109.651 32.2834L121.748 20.0801H127.002V55.0838H119.564V32.8801L109.651 42.8805L99.7376 32.8801Z" fill="#BDBFC1"/>
<path d="M149.87 17.5293L171.362 55.0891H162.761L159.911 50.0864H139.834L136.96 55.0891H128.383L149.875 17.5293H149.87ZM155.618 42.5824L149.87 32.5323L144.117 42.5824H155.618Z" fill="#BDBFC1"/>
<path d="M182.035 20.0801H204.345V27.5841H182.035C178.727 27.5841 177.076 29.25 177.076 32.5867V42.5871C177.076 45.9239 178.727 47.5898 182.035 47.5898H196.907V41.3389H184.514V33.8349H204.345V55.0888H182.035C173.773 55.0888 169.642 50.9216 169.642 42.5871V32.5867C169.642 24.2523 173.773 20.0851 182.035 20.0851V20.0801Z" fill="#BDBFC1"/>
<path d="M242.731 20.0801V27.5841H215.466V33.8349H240.252V41.3389H215.466V47.5898H242.731V55.0938H208.028V20.0801H242.731Z" fill="#BDBFC1"/>
<path d="M273.688 42.2838V20.0801H281.127V55.0838H275.872L253.862 32.8801V55.0838H246.423V20.0801H251.678L273.688 42.2838Z" fill="#BDBFC1"/>
<path d="M305.877 27.5802V55.0849H298.439V27.5802H284.809V20.0762H319.512V27.5802H305.877Z" fill="#BDBFC1"/>
<path d="M334.118 17.5293L355.611 55.0891H347.009L344.16 50.0864H324.082L321.208 55.0891H312.631L334.123 17.5293H334.118ZM339.866 42.5824L334.118 32.5323L328.366 42.5824H339.866Z" fill="#BDBFC1"/>
<path d="M105.86 63.5293V66.3439H95.9419V68.6911H104.958V71.5057H95.9419V73.8529H105.86V76.6675H93.2356V63.5392H105.86V63.5293Z" fill="white"/>
<path d="M116.005 68.1043L120.407 63.5293H124.232L117.917 70.0934L124.232 76.6576H120.407L116.005 72.0826L111.603 76.6576H107.778L114.092 70.0934L107.778 63.5293H111.603L116.005 68.1043Z" fill="white"/>
<path d="M133.82 66.3439V76.6625H131.114V66.3439H126.155V63.5293H138.779V66.3439H133.82Z" fill="white"/>
<path d="M155.238 63.5293V66.3439H145.32V68.6911H154.336V71.5057H145.32V73.8529H155.238V76.6675H142.614V63.5392H155.238V63.5293Z" fill="white"/>
<path d="M168.094 63.5284C170.5 63.5284 171.703 64.7816 171.703 67.2779V67.7454C171.703 70.2467 170.5 71.4949 168.094 71.4949H167.646L172.605 76.6517H168.78L163.82 71.4949H161.785V76.6517H159.078V63.5234H168.094V63.5284ZM168.996 67.2779C168.996 66.6513 168.696 66.3381 168.094 66.3381H161.785V68.6852H168.094C168.696 68.6852 168.996 68.3719 168.996 67.7454V67.2779Z" fill="white"/>
<path d="M178.244 76.6576H175.538V63.5293H178.244V76.6576Z" fill="white"/>
<path d="M182.079 71.9682V68.2187C182.079 65.0908 183.583 63.5293 186.59 63.5293H190.198C193.205 63.5293 194.708 65.0908 194.708 68.2187V71.9682C194.708 75.0961 193.205 76.6576 190.198 76.6576H186.59C183.583 76.6576 182.079 75.0961 182.079 71.9682ZM184.785 68.2187V71.9682C184.785 73.2213 185.387 73.8429 186.59 73.8429H190.198C191.401 73.8429 192.002 73.2164 192.002 71.9682V68.2187C192.002 66.9655 191.401 66.3439 190.198 66.3439H186.59C185.387 66.3439 184.785 66.9705 184.785 68.2187Z" fill="white"/>
<path d="M207.555 63.5284C209.96 63.5284 211.163 64.7816 211.163 67.2779V67.7454C211.163 70.2467 209.96 71.4949 207.555 71.4949H207.106L212.065 76.6517H208.24L203.281 71.4949H201.245V76.6517H198.539V63.5234H207.555V63.5284ZM208.457 67.2779C208.457 66.6513 208.156 66.3381 207.555 66.3381H201.245V68.6852H207.555C208.156 68.6852 208.457 68.3719 208.457 67.7454V67.2779Z" fill="white"/>
<path d="M230.629 63.5293C233.035 63.5293 234.238 64.7824 234.238 67.2788H231.531C231.531 66.6522 231.231 66.3389 230.629 66.3389H225.217C224.615 66.3389 224.315 66.6522 224.315 67.2788V67.7463C224.315 68.3728 224.615 68.6861 225.217 68.6861H230.629C233.035 68.6861 234.238 69.9393 234.238 72.4356V72.9031C234.238 75.4044 233.035 76.6526 230.629 76.6526H225.217C222.811 76.6526 221.608 75.3994 221.608 72.9031H224.315C224.315 73.5297 224.615 73.8429 225.217 73.8429H230.629C231.231 73.8429 231.531 73.5297 231.531 72.9031V72.4356C231.531 71.8091 231.231 71.4958 230.629 71.4958H225.217C222.811 71.4958 221.608 70.2426 221.608 67.7463V67.2788C221.608 64.7775 222.811 63.5293 225.217 63.5293H230.629Z" fill="white"/>
<path d="M238.073 71.9682V68.2187C238.073 65.0908 239.576 63.5293 242.583 63.5293H246.192C249.199 63.5293 250.702 65.0908 250.702 68.2187V71.9682C250.702 75.0961 249.199 76.6576 246.192 76.6576H242.583C239.576 76.6576 238.073 75.0961 238.073 71.9682ZM240.779 68.2187V71.9682C240.779 73.2213 241.38 73.8429 242.583 73.8429H246.192C247.394 73.8429 247.996 73.2164 247.996 71.9682V68.2187C247.996 66.9655 247.394 66.3439 246.192 66.3439H242.583C241.38 66.3439 240.779 66.9705 240.779 68.2187Z" fill="white"/>
<path d="M257.239 73.8468H267.157V76.6615H254.532V63.5332H257.239V73.8518V73.8468Z" fill="white"/>
<path d="M270.992 71.9682V63.5293H273.698V71.9682C273.698 73.2213 274.299 73.8429 275.502 73.8429H279.111C280.313 73.8429 280.915 73.2164 280.915 71.9682V63.5293H283.621V71.9682C283.621 75.0961 282.117 76.6576 279.111 76.6576H275.502C272.495 76.6576 270.992 75.0961 270.992 71.9682Z" fill="white"/>
<path d="M295.121 66.3439V76.6625H292.415V66.3439H287.456V63.5293H300.08V66.3439H295.121Z" fill="white"/>
<path d="M306.622 76.6576H303.916V63.5293H306.622V76.6576Z" fill="white"/>
<path d="M310.457 71.9682V68.2187C310.457 65.0908 311.96 63.5293 314.967 63.5293H318.576C321.583 63.5293 323.086 65.0908 323.086 68.2187V71.9682C323.086 75.0961 321.583 76.6576 318.576 76.6576H314.967C311.96 76.6576 310.457 75.0961 310.457 71.9682ZM313.163 68.2187V71.9682C313.163 73.2213 313.764 73.8429 314.967 73.8429H318.576C319.778 73.8429 320.38 73.2164 320.38 71.9682V68.2187C320.38 66.9655 319.778 66.3439 318.576 66.3439H314.967C313.764 66.3439 313.163 66.9705 313.163 68.2187Z" fill="white"/>
<path d="M336.834 71.8588V63.5293H339.541V76.6576H337.628L329.623 68.3281V76.6576H326.916V63.5293H328.829L336.839 71.8588H336.834Z" fill="white"/>
<path d="M352.397 63.5293C354.802 63.5293 356.005 64.7824 356.005 67.2788H353.299C353.299 66.6522 352.998 66.3389 352.397 66.3389H346.984C346.383 66.3389 346.082 66.6522 346.082 67.2788V67.7463C346.082 68.3728 346.383 68.6861 346.984 68.6861H352.397C354.802 68.6861 356.005 69.9393 356.005 72.4356V72.9031C356.005 75.4044 354.802 76.6526 352.397 76.6526H346.984C344.579 76.6526 343.376 75.3994 343.376 72.9031H346.082C346.082 73.5297 346.383 73.8429 346.984 73.8429H352.397C352.998 73.8429 353.299 73.5297 353.299 72.9031V72.4356C353.299 71.8091 352.998 71.4958 352.397 71.4958H346.984C344.579 71.4958 343.376 70.2426 343.376 67.7463V67.2788C343.376 64.7775 344.579 63.5293 346.984 63.5293H352.397Z" fill="white"/>
</g>
<defs>
<clipPath id="clip0_1469_615">
<rect width="356" height="97" fill="white"/>
</clipPath>
</defs>
</svg>
