<svg width="177" height="39" viewBox="0 0 177 39" fill="none" xmlns="http://www.w3.org/2000/svg">
<path d="M4.99276 10.1229V24.7659H0V1.68141H3.52702L11.6465 9.72934L19.7659 1.68141H23.2929V24.7659H18.3002V10.1229L11.6465 16.718L4.99276 10.1229Z" fill="#8A8C8F"/>
<path d="M38.6418 -0.000976562L53.0675 24.7692H47.2939L45.3815 21.47H31.9054L29.9764 24.7692H24.2193L38.6451 -0.000976562H38.6418ZM42.4997 16.5212L38.6418 9.89331L34.7806 16.5212H42.4997Z" fill="#8A8C8F"/>
<path d="M60.2307 1.68141H75.2057V6.6302H60.2307C58.0106 6.6302 56.9022 7.72883 56.9022 9.92939V16.5245C56.9022 18.725 58.0106 19.8237 60.2307 19.8237H70.2129V15.7013H61.895V10.7525H75.2057V24.7692H60.2307C54.6854 24.7692 51.9128 22.0209 51.9128 16.5245V9.92939C51.9128 4.43292 54.6854 1.68469 60.2307 1.68469V1.68141Z" fill="#8A8C8F"/>
<path d="M100.97 1.68141V6.6302H82.67V10.7525H99.3059V15.7013H82.67V19.8237H100.97V24.7725H77.6773V1.68141H100.97Z" fill="#8A8C8F"/>
<path d="M121.749 16.3244V1.68141H126.741V24.7659H123.214L108.441 10.1229V24.7659H103.448V1.68141H106.975L121.749 16.3244Z" fill="#8A8C8F"/>
<path d="M143.354 6.62692V24.7659H138.361V6.62692H129.213V1.67813H152.506V6.62692H143.354Z" fill="#8A8C8F"/>
<path d="M162.309 -0.000976562L176.735 24.7692H170.961L169.049 21.47H155.573L153.644 24.7692H147.887L162.313 -0.000976562H162.309ZM166.167 16.5212L162.309 9.89331L158.448 16.5212H166.167Z" fill="#8A8C8F"/>
<path d="M9.10238 30.3346V32.1908H2.44537V33.7387H8.4969V35.5949H2.44537V37.1428H9.10238V38.999H0.62892V30.3411H9.10238V30.3346Z" fill="#CBCCCD"/>
<path d="M15.9116 33.3516L18.8662 30.3345H21.4337L17.1954 34.6634L21.4337 38.9924H18.8662L15.9116 35.9752L12.957 38.9924H10.3895L14.6278 34.6634L10.3895 30.3345H12.957L15.9116 33.3516Z" fill="#CBCCCD"/>
<path d="M27.8691 32.1907V38.9957H26.0526V32.1907H22.7241V30.3345H31.1976V32.1907H27.8691Z" fill="#CBCCCD"/>
<path d="M42.2452 30.3345V32.1907H35.5882V33.7386H41.6397V35.5948H35.5882V37.1427H42.2452V38.999H33.7717V30.341H42.2452V30.3345Z" fill="#CBCCCD"/>
<path d="M50.8741 30.3345C52.4888 30.3345 53.2961 31.1609 53.2961 32.8072V33.1155C53.2961 34.7651 52.4888 35.5883 50.8741 35.5883H50.5731L53.9016 38.9891H51.334L48.0055 35.5883H46.6391V38.9891H44.8226V30.3312H50.8741V30.3345ZM51.4796 32.8072C51.4796 32.394 51.2778 32.1874 50.8741 32.1874H46.6391V33.7353H50.8741C51.2778 33.7353 51.4796 33.5287 51.4796 33.1155V32.8072Z" fill="#CBCCCD"/>
<path d="M57.6867 38.9924H55.8702V30.3345H57.6867V38.9924Z" fill="#CBCCCD"/>
<path d="M60.2608 35.8998V33.4271C60.2608 31.3642 61.2699 30.3345 63.2882 30.3345H65.7101C67.7284 30.3345 68.7376 31.3642 68.7376 33.4271V35.8998C68.7376 37.9626 67.7284 38.9924 65.7101 38.9924H63.2882C61.2699 38.9924 60.2608 37.9626 60.2608 35.8998ZM62.0772 33.4271V35.8998C62.0772 36.7263 62.4809 37.1362 63.2882 37.1362H65.7101C66.5175 37.1362 66.9211 36.723 66.9211 35.8998V33.4271C66.9211 32.6006 66.5175 32.1907 65.7101 32.1907H63.2882C62.4809 32.1907 62.0772 32.6039 62.0772 33.4271Z" fill="#CBCCCD"/>
<path d="M77.3599 30.3345C78.9745 30.3345 79.7818 31.1609 79.7818 32.8072V33.1155C79.7818 34.7651 78.9745 35.5883 77.3599 35.5883H77.0588L80.3873 38.9891H77.8198L74.4913 35.5883H73.1248V38.9891H71.3084V30.3312H77.3599V30.3345ZM77.9654 32.8072C77.9654 32.394 77.7636 32.1874 77.3599 32.1874H73.1248V33.7353H77.3599C77.7636 33.7353 77.9654 33.5287 77.9654 33.1155V32.8072Z" fill="#CBCCCD"/>
<path d="M92.8477 30.3345C94.4623 30.3345 95.2696 31.1609 95.2696 32.8072H93.4532C93.4532 32.394 93.2514 32.1874 92.8477 32.1874H89.2148C88.8112 32.1874 88.6093 32.394 88.6093 32.8072V33.1155C88.6093 33.5287 88.8112 33.7353 89.2148 33.7353H92.8477C94.4623 33.7353 95.2696 34.5618 95.2696 36.2081V36.5164C95.2696 38.166 94.4623 38.9891 92.8477 38.9891H89.2148C87.6002 38.9891 86.7929 38.1627 86.7929 36.5164H88.6093C88.6093 36.9296 88.8112 37.1362 89.2148 37.1362H92.8477C93.2514 37.1362 93.4532 36.9296 93.4532 36.5164V36.2081C93.4532 35.7949 93.2514 35.5883 92.8477 35.5883H89.2148C87.6002 35.5883 86.7929 34.7618 86.7929 33.1155V32.8072C86.7929 31.1576 87.6002 30.3345 89.2148 30.3345H92.8477Z" fill="#CBCCCD"/>
<path d="M97.8438 35.8998V33.4271C97.8438 31.3642 98.8529 30.3345 100.871 30.3345H103.293C105.311 30.3345 106.321 31.3642 106.321 33.4271V35.8998C106.321 37.9626 105.311 38.9924 103.293 38.9924H100.871C98.8529 38.9924 97.8438 37.9626 97.8438 35.8998ZM99.6602 33.4271V35.8998C99.6602 36.7263 100.064 37.1362 100.871 37.1362H103.293C104.1 37.1362 104.504 36.723 104.504 35.8998V33.4271C104.504 32.6006 104.1 32.1907 103.293 32.1907H100.871C100.064 32.1907 99.6602 32.6039 99.6602 33.4271Z" fill="#CBCCCD"/>
<path d="M110.708 37.1395H117.365V38.9957H108.891V30.3378H110.708V37.1427V37.1395Z" fill="#CBCCCD"/>
<path d="M119.939 35.8998V30.3345H121.755V35.8998C121.755 36.7263 122.159 37.1362 122.966 37.1362H125.388C126.196 37.1362 126.599 36.723 126.599 35.8998V30.3345H128.416V35.8998C128.416 37.9626 127.407 38.9924 125.388 38.9924H122.966C120.948 38.9924 119.939 37.9626 119.939 35.8998Z" fill="#CBCCCD"/>
<path d="M136.135 32.1907V38.9957H134.318V32.1907H130.99V30.3345H139.463V32.1907H136.135Z" fill="#CBCCCD"/>
<path d="M143.854 38.9924H142.037V30.3345H143.854V38.9924Z" fill="#CBCCCD"/>
<path d="M146.428 35.8998V33.4271C146.428 31.3642 147.437 30.3345 149.455 30.3345H151.877C153.896 30.3345 154.905 31.3642 154.905 33.4271V35.8998C154.905 37.9626 153.896 38.9924 151.877 38.9924H149.455C147.437 38.9924 146.428 37.9626 146.428 35.8998ZM148.244 33.4271V35.8998C148.244 36.7263 148.648 37.1362 149.455 37.1362H151.877C152.685 37.1362 153.088 36.723 153.088 35.8998V33.4271C153.088 32.6006 152.685 32.1907 151.877 32.1907H149.455C148.648 32.1907 148.244 32.6039 148.244 33.4271Z" fill="#CBCCCD"/>
<path d="M164.133 35.8277V30.3345H165.949V38.9924H164.665L159.292 33.4992V38.9924H157.476V30.3345H158.759L164.136 35.8277H164.133Z" fill="#CBCCCD"/>
<path d="M174.578 30.3345C176.193 30.3345 177 31.1609 177 32.8072H175.184C175.184 32.394 174.982 32.1874 174.578 32.1874H170.945C170.542 32.1874 170.34 32.394 170.34 32.8072V33.1155C170.34 33.5287 170.542 33.7353 170.945 33.7353H174.578C176.193 33.7353 177 34.5618 177 36.2081V36.5164C177 38.166 176.193 38.9891 174.578 38.9891H170.945C169.331 38.9891 168.523 38.1627 168.523 36.5164H170.34C170.34 36.9296 170.542 37.1362 170.945 37.1362H174.578C174.982 37.1362 175.184 36.9296 175.184 36.5164V36.2081C175.184 35.7949 174.982 35.5883 174.578 35.5883H170.945C169.331 35.5883 168.523 34.7618 168.523 33.1155V32.8072C168.523 31.1576 169.331 30.3345 170.945 30.3345H174.578Z" fill="#CBCCCD"/>
</svg>
